#!OML:ASF F:\VICON\USERDATA\INSTALL\rory3\rory3.ASF
:FULLY-SPECIFIED
:DEGREES
2314
root -4.19707 17.7698 -5.6125 12.8052 69.5462 6.7546
lowerback 6.96875 5.81712 5.73527
upperback 3.16565 8.24842 4.23768
thorax -0.424124 4.18619 0.616998
lowerneck -20.7857 -5.80593 -5.86658
upperneck 31.5293 -6.64822 2.5549
head 14.6908 -2.96088 0.866911
rclavicle -1.01778e-013 -3.81667e-014
rhumerus 36.9517 33.5817 -89.332
rradius 27.9399
rwrist 33.538
rhand -28.8149 -7.97783
rfingers 7.12502
rthumb -2.1729 -37.9465
lclavicle -1.01778e-013 -3.81667e-014
lhumerus 34.417 21.5011 71.4225
lradius 15.7154
lwrist -29.7489
lhand -28.9781 37.6587
lfingers 7.12502
lthumb -2.33052 427.626
rfemur -29.0326 -12.3305 14.2385
rtibia 32.8325
rfoot -13.7678 -15.0455
rtoes 20.1216
lfemur -10.6177 -6.57324 -17.6272
ltibia 22.7915
lfoot -15.052 1.40132
ltoes -16.7425
2315
root -4.1979 17.771 -5.61087 12.5643 69.9163 6.56201
lowerback 7.03135 5.91703 5.96376
upperback 3.15917 8.40247 4.24757
thorax -0.429293 4.26485 0.489953
lowerneck -20.9438 -5.84072 -5.5831
upperneck 31.5766 -6.7543 2.43372
head 14.7328 -2.98494 0.745779
rclavicle -8.70677e-014 -6.99722e-014
rhumerus 37.1991 33.3326 -89.5211
rradius 26.8154
rwrist 32.7823
rhand -29.1487 -8.81467
rfingers 7.12502
rthumb -2.49531 -38.7798
lclavicle -8.70677e-014 -6.99722e-014
lhumerus 34.6888 21.1896 70.9175
lradius 15.1091
lwrist -30.1301
lhand -28.681 37.2699
lfingers 7.12502
lthumb -2.04363 427.24
rfemur -28.85 -12.4792 14.3271
rtibia 32.7816
rfoot -13.903 -15.1875
rtoes 19.9778
lfemur -10.6406 -6.78693 -17.4674
ltibia 22.831
lfoot -15.0504 1.28278
ltoes -16.9827
2316
root -4.19835 17.7717 -5.61176 12.492 70.4044 6.59514
lowerback 7.16331 5.95609 6.38805
upperback 3.13353 8.48844 4.0719
thorax -0.436597 4.30975 0.0665717
lowerneck -21.087 -5.82833 -5.23729
upperneck 31.603 -6.87055 2.46327
head 14.7659 -2.98426 0.674489
rclavicle -7.55382e-014 3.18055e-015
rhumerus 37.2194 32.6394 -90.3007
rradius 25.8804
rwrist 32.5537
rhand -28.9063 -9.23365
rfingers 7.12502
rthumb -2.2612 -39.2014
lclavicle -7.55382e-014 3.18055e-015
lhumerus 34.7233 20.1287 69.7189
lradius 14.9428
lwrist -29.2733
lhand -28.1905 37.059
lfingers 7.12502
lthumb -1.56991 427.033
rfemur -28.593 -12.7723 14.3293
rtibia 32.7444
rfoot -14.0082 -15.3121
rtoes 20.132
lfemur -10.6203 -7.12562 -17.3827
ltibia 22.8321
lfoot -15.0106 1.15729
ltoes -17.0028
2317
root -4.19626 17.7721 -5.61184 12.9448 70.9626 7.1784
lowerback 7.23299 5.98806 6.57559
upperback 3.1052 8.54431 3.89242
thorax -0.446495 4.3376 -0.226887
lowerneck -21.2522 -5.83663 -5.04842
upperneck 31.655 -7.01233 2.64677
head 14.8323 -2.98962 0.687203
rclavicle 5.92378e-014 3.18055e-014
rhumerus 37.2804 31.9933 -90.9408
rradius 25.0184
rwrist 32.5541
rhand -28.6368 -9.52937
rfingers 7.12502
rthumb -2.00095 -39.4997
lclavicle 5.92378e-014 3.18055e-014
lhumerus 34.8386 19.355 68.9677
lradius 14.9756
lwrist -28.7621
lhand -27.5636 37.0054
lfingers 7.12502
lthumb -0.964477 426.983
rfemur -28.3242 -13.2715 14.1549
rtibia 32.7291
rfoot -14.1183 -15.3093
rtoes 20.3099
lfemur -10.5821 -7.41838 -17.4812
ltibia 22.7914
lfoot -14.9479 0.850963
ltoes -17.0513
2318
root -4.1956 17.7733 -5.60942 13.0462 71.4908 7.37021
lowerback 7.26533 6.06324 6.62983
upperback 3.06785 8.65345 3.88939
thorax -0.489213 4.39063 -0.27105
lowerneck -21.4272 -5.84098 -4.92526
upperneck 31.7854 -7.10695 2.78787
head 14.9364 -2.98597 0.702802
rclavicle 4.17448e-014 4.45278e-014
rhumerus 37.2858 31.5614 -91.1676
rradius 24.4208
rwrist 32.8196
rhand -28.3259 -9.70027
rfingers 7.12502
rthumb -1.70065 -39.6732
lclavicle 4.17448e-014 4.45278e-014
lhumerus 35.027 19.0539 68.8233
lradius 15.0432
lwrist -28.7289
lhand -27.228 36.6422
lfingers 7.12502
lthumb -0.640289 426.621
rfemur -28.0819 -13.6403 14.1242
rtibia 32.7329
rfoot -14.3515 -15.306
rtoes 20.4153
lfemur -10.5402 -7.71203 -17.4248
ltibia 22.7208
lfoot -14.8654 0.604592
ltoes -16.8282
2319
root -4.19494 17.7764 -5.60826 12.9886 72.0025 7.39369
lowerback 7.29183 6.14793 6.59127
upperback 3.02408 8.77549 4.03271
thorax -0.57197 4.44893 -0.119517
lowerneck -21.5655 -5.83951 -4.85929
upperneck 31.928 -7.11925 2.78282
head 15.0299 -2.97571 0.684762
rclavicle -4.37326e-015 6.67916e-014
rhumerus 37.1272 31.3324 -91.0914
rradius 24.1384
rwrist 33.3247
rhand -28.0744 -9.99698
rfingers 7.12502
rthumb -1.45773 -39.9717
lclavicle -4.37326e-015 6.67916e-014
lhumerus 35.2821 19.1334 69.2242
lradius 15.0929
lwrist -29.269
lhand -26.9124 36.4052
lfingers 7.12502
lthumb -0.335434 426.385
rfemur -27.8443 -13.9082 14.1351
rtibia 32.7472
rfoot -14.5912 -15.3639
rtoes 20.5085
lfemur -10.4927 -7.99591 -17.32
ltibia 22.6391
lfoot -14.7996 0.374275
ltoes -16.415
